<svg width="50" height="41" viewBox="0 0 50 41" fill="none" xmlns="http://www.w3.org/2000/svg">
<path d="M49.9501 16.7186C49.9065 16.4583 49.8107 16.2096 49.6684 15.9874C49.5261 15.7652 49.3403 15.5742 49.1221 15.4258C48.6579 15.1379 48.1287 14.9714 47.5833 14.9415C47.6405 14.7013 47.6577 14.4532 47.6341 14.2073C47.4779 12.5201 45.9469 12.2545 44.8299 12.071L44.5839 12.028C43.489 11.9156 42.388 11.8726 41.2876 11.8991C41.3215 11.6368 41.2975 11.3702 41.2173 11.118C41.1016 10.7355 40.8983 10.3852 40.6237 10.0948C40.9704 9.74341 41.224 9.31121 41.3618 8.83723C41.4505 8.49271 41.4664 8.13352 41.4085 7.78253C41.3507 7.43153 41.2204 7.09643 41.026 6.79855C40.8898 6.57238 40.7092 6.37618 40.4951 6.22178C40.2809 6.06739 40.0377 5.95802 39.7801 5.90028C39.2425 5.79689 38.6875 5.83183 38.1671 6.00182C38.1326 5.75797 38.0574 5.52165 37.9445 5.30274C37.1634 3.7913 35.6598 4.13108 34.5506 4.34589L34.3085 4.39666C33.4961 4.5646 29.6219 6.18148 28.1534 6.8376L28.583 5.74015C29.2743 3.99048 29.1024 2.22519 28.1261 1.01058C27.5441 0.28806 26.7591 -0.0907746 26.0796 0.0185798C24.658 0.245099 23.994 1.97134 23.5566 3.09612C23.4668 3.32655 23.3457 3.63899 23.2989 3.71319C23.1661 3.89285 22.8146 4.44743 22.1506 5.49411C21.0258 7.26331 19.3504 9.90343 18.3115 11.3524C17.0461 11.8796 15.5308 12.5006 14.7106 12.8326L13.9295 12.9614C14.4919 11.4656 15.3199 8.94267 15.4605 6.80636C15.5855 4.93171 14.8825 3.2914 13.5858 2.4439C12.8047 1.93228 11.9494 1.8073 11.3324 2.11975C10.1412 2.7251 9.7311 4.46305 9.41085 6.201C9.36789 6.43924 9.31712 6.70872 9.29759 6.77902C9.2312 6.93915 8.83674 7.59137 8.48524 8.16938C7.50886 9.78236 6.03258 12.2194 5.45066 13.9925C5.25538 14.5861 4.51334 16.7264 3.85721 18.5971C3.32997 20.0968 2.88083 21.3934 2.79491 21.659C2.63869 21.948 1.51 22.8815 0.381304 23.6508C0.209878 23.7679 0.0919696 23.9482 0.0535173 24.1522C0.0150649 24.3562 0.0592185 24.5671 0.176265 24.7385C0.293311 24.9099 0.473662 25.0279 0.677642 25.0663C0.881623 25.1048 1.09252 25.0606 1.26395 24.9436C2.49419 24.1 4.01734 22.94 4.26729 22.1785C4.36102 21.8934 4.82968 20.542 5.32959 19.1126C5.98962 17.2263 6.73557 15.086 6.93475 14.4807C7.45809 12.8755 8.88751 10.5322 9.82093 8.97782C10.187 8.43805 10.5071 7.86844 10.7778 7.27502C10.8492 7.01798 10.9066 6.75722 10.9496 6.49392C11.0824 5.76359 11.4378 3.82645 12.0314 3.52573C12.3323 3.52171 12.6232 3.63358 12.8438 3.83817C13.1992 4.11546 14.0154 4.94343 13.9022 6.71263C13.7108 9.12233 12.5314 12.2077 12.1135 13.2739C10.5981 13.5629 9.70767 14.0081 9.48505 14.5979C9.41085 14.7901 9.4156 15.0038 9.49826 15.1925C9.58092 15.3813 9.73479 15.5297 9.92638 15.6055C10.0148 15.6396 10.1089 15.6568 10.2037 15.6563C10.332 15.656 10.4582 15.6242 10.5713 15.5636C10.6844 15.5029 10.7808 15.4154 10.852 15.3087C10.9418 15.2423 11.387 14.9572 12.7813 14.7346L15.027 14.3791C15.0853 14.3677 15.1427 14.352 15.1988 14.3323C15.4019 14.2464 20.2252 12.2897 21.0571 11.8757C21.4828 11.657 23.4824 10.7314 25.2477 9.92296C26.7513 9.22387 28.048 8.62242 28.3018 8.49354C28.8291 8.22797 33.9297 6.07994 34.617 5.93934L34.8709 5.88466C36.1519 5.61518 36.3667 5.66986 36.5463 6.02135C36.6025 6.14186 36.6269 6.2747 36.6173 6.40728C36.6077 6.53987 36.5645 6.66782 36.4917 6.77902L21.1899 15.5586C21.0394 15.6439 20.9215 15.7767 20.8546 15.9362C20.7877 16.0957 20.7757 16.2729 20.8204 16.44C20.865 16.607 20.9639 16.7546 21.1015 16.8594C21.239 16.9643 21.4075 17.0205 21.5804 17.0193C21.7176 17.019 21.8523 16.9827 21.971 16.9138L37.4017 8.0366C37.7922 7.78274 38.8154 7.30627 39.3778 7.43905C39.433 7.4494 39.4852 7.47149 39.5311 7.50384C39.5769 7.53619 39.6152 7.57803 39.6434 7.62652C39.7289 7.74154 39.7881 7.87382 39.8172 8.01413C39.8462 8.15444 39.8442 8.2994 39.8114 8.43886C39.6188 8.90052 39.2724 9.28135 38.8311 9.51679H38.7881L23.5566 19.4837C23.4163 19.5761 23.3096 19.7113 23.2523 19.8692C23.1949 20.0271 23.19 20.1992 23.2382 20.3601C23.2864 20.521 23.3852 20.6621 23.52 20.7624C23.6547 20.8627 23.8182 20.9169 23.9862 20.917C24.1443 20.9243 24.301 20.8835 24.4354 20.7998L39.3232 11.036C39.5188 11.1577 39.6654 11.3443 39.7372 11.5633C39.7272 11.8248 39.6403 12.0775 39.4872 12.2897V12.3131C39.2073 12.752 38.8638 13.1469 38.4679 13.4848C37.2611 14.5822 34.8826 16.3241 34.8396 16.3592L24.0839 24.0336C24.0003 24.0938 23.9293 24.17 23.8752 24.2576C23.821 24.3453 23.7846 24.4428 23.7681 24.5445C23.7348 24.75 23.7845 24.9602 23.9062 25.1291C24.0279 25.2979 24.2117 25.4115 24.4171 25.4448C24.6225 25.4781 24.8328 25.4285 25.0017 25.3068L35.6637 17.7223C35.7484 17.6865 35.8431 17.6817 35.931 17.7089C36.0188 17.736 36.0943 17.7933 36.1441 17.8707C36.4175 18.23 35.8551 18.9213 35.4098 19.2962C35.1521 19.5149 34.6873 19.964 34.0976 20.5303C32.8517 21.7332 30.7662 23.7407 29.989 24.1351C29.0907 24.5921 27.9464 25.6973 26.6185 26.9744C25.9312 27.6423 25.2165 28.3296 24.5252 28.9272C22.1545 31.001 15.9682 35.7892 13.0117 36.5312C10.9769 37.0406 8.9082 37.4034 6.82149 37.6169C4.6969 37.8669 3.01752 38.0622 0.475036 39.2182C0.308884 39.289 0.172386 39.4151 0.0887699 39.5752C0.00515389 39.7353 -0.0204132 39.9194 0.0164196 40.0962C0.0532524 40.273 0.150209 40.4315 0.29079 40.5449C0.431371 40.6583 0.60689 40.7194 0.787477 40.7179C0.899317 40.718 1.00986 40.694 1.11163 40.6476C3.4276 39.5931 4.92341 39.4174 6.98943 39.1792C8.89087 38.979 10.7782 38.662 12.6407 38.2301C12.9683 38.6489 13.3856 38.9889 13.8619 39.2252C14.3381 39.4615 14.8613 39.5881 15.393 39.5956C15.9246 39.6031 16.4512 39.4913 16.9339 39.2685C17.4167 39.0458 17.8434 38.7176 18.1826 38.3082C19.2664 39.0037 20.5562 39.3056 21.836 39.1634C23.1158 39.0212 24.3079 38.4435 25.2126 37.5271C25.7314 37.8933 26.3408 38.1099 26.9743 38.1535C27.6079 38.197 28.2412 38.0658 28.8053 37.7741C29.3693 37.4824 29.8425 37.0414 30.1731 36.4993C30.5037 35.9571 30.6792 35.3346 30.6803 34.6995C30.6807 34.4486 30.6531 34.1984 30.5983 33.9536C31.0637 33.7182 31.4936 33.4184 31.8754 33.0631C32.4717 33.3119 33.1204 33.4089 33.7633 33.3453C34.4063 33.2817 35.0235 33.0596 35.5595 32.6989C36.0956 32.3382 36.5338 31.8501 36.8348 31.2784C37.1359 30.7067 37.2904 30.0693 37.2845 29.4232C37.2845 29.3255 37.2845 29.2279 37.2845 29.1303C39.6044 28.5366 40.3503 28.2476 41.147 27.7946C41.6899 27.4821 43.3458 26.537 42.8616 24.7952C42.8282 24.6605 42.7811 24.5296 42.721 24.4046C43.67 24.1351 44.8338 23.7836 45.6657 23.4712C47.4388 22.8072 48.5285 21.7918 48.5792 20.7608C48.5992 20.3676 48.5297 19.975 48.3761 19.6125C48.8253 19.4111 49.2182 19.1027 49.5205 18.7143C49.725 18.4288 49.8687 18.1044 49.9426 17.761C50.0165 17.4177 50.0191 17.0629 49.9501 16.7186ZM24.5642 8.49354C23.2012 9.12624 21.8304 9.77455 20.9829 10.1651C21.8304 8.87238 22.7404 7.43124 23.4434 6.33379C23.9706 5.49801 24.4275 4.77159 24.5369 4.63099C24.7283 4.32557 24.8842 3.9993 25.0017 3.65852C25.2516 3.0063 25.7828 1.64718 26.3061 1.56126C26.5931 1.65015 26.835 1.84588 26.9817 2.10803C27.2356 2.47905 27.7629 3.51792 27.1145 5.16605L26.0757 7.79446L24.5642 8.49354ZM39.4989 14.6799C39.9184 14.3173 40.2958 13.9085 40.6237 13.4614C41.8612 13.42 43.1001 13.4513 44.3339 13.5551L44.5878 13.598C45.8805 13.8207 46.0602 13.9456 46.0992 14.3401C46.1066 14.4705 46.0812 14.6007 46.0252 14.7187C45.9693 14.8368 45.8846 14.9389 45.779 15.0157L38.1086 15.8515C38.6124 15.4493 39.1123 15.0353 39.5067 14.6799H39.4989ZM33.3673 31.8055C32.9299 31.8062 32.501 31.6845 32.1292 31.4541C31.9708 31.3561 31.7825 31.3181 31.5985 31.3467C31.4144 31.3754 31.2467 31.4688 31.1255 31.6103C30.6647 32.1529 30.0634 32.5583 29.3875 32.7819C29.2804 32.8165 29.182 32.8739 29.0991 32.95C29.0162 33.0262 28.9507 33.1194 28.9072 33.2232C28.8607 33.325 28.8367 33.4356 28.8367 33.5474C28.8367 33.6593 28.8607 33.7698 28.9072 33.8716C29.0381 34.1321 29.1063 34.4197 29.1063 34.7113C29.1065 35.1041 28.9852 35.4873 28.7591 35.8086C28.5331 36.1298 28.2132 36.3734 27.8434 36.5059C27.4737 36.6385 27.0719 36.6535 26.6933 36.549C26.3146 36.4444 25.9775 36.2254 25.7281 35.922C25.6521 35.8294 25.5559 35.7556 25.4469 35.7062C25.3379 35.6567 25.2189 35.633 25.0993 35.6369C24.9807 35.6407 24.8645 35.6716 24.7596 35.7271C24.6548 35.7826 24.5639 35.8612 24.4939 35.9571C24.1599 36.4199 23.732 36.807 23.2382 37.0932C22.7444 37.3794 22.1957 37.5582 21.6281 37.6179C21.0605 37.6776 20.4867 37.6169 19.9441 37.4397C19.4016 37.2626 18.9025 36.973 18.4794 36.5898C18.388 36.5076 18.2785 36.4481 18.1597 36.4162C18.0409 36.3843 17.9163 36.3809 17.796 36.4062C17.6756 36.4318 17.563 36.4855 17.4673 36.5629C17.3716 36.6402 17.2955 36.7391 17.2453 36.8515C17.1285 37.1134 16.9566 37.3471 16.7413 37.5366C16.526 37.7261 16.2724 37.867 15.9978 37.9496C15.7231 38.0323 15.4339 38.0548 15.1498 38.0156C14.8656 37.9764 14.5933 37.8764 14.3513 37.7224C18.003 36.2695 23.6621 31.7352 25.5172 30.1106C26.2397 29.4818 26.9661 28.7788 27.6691 28.0992C28.8017 27.0096 29.9734 25.877 30.6607 25.5294C31.5707 25.0685 33.2306 23.5024 35.1443 21.659L35.652 21.1904C35.705 21.4711 35.7324 21.7561 35.734 22.0418C35.7351 22.7735 35.5635 23.4952 35.233 24.1481C34.9024 24.801 34.4224 25.3666 33.832 25.7989C33.7169 25.885 33.6277 26.0013 33.5744 26.1349C33.5211 26.2685 33.5057 26.4142 33.53 26.5559C33.5542 26.6977 33.6171 26.83 33.7118 26.9383C33.8064 27.0466 33.9291 27.1267 34.0663 27.1697C34.6056 27.3394 35.0664 27.6962 35.3657 28.1757C35.6651 28.6552 35.7832 29.2259 35.6988 29.7848C35.6145 30.3438 35.3332 30.8542 34.9057 31.224C34.4781 31.5938 33.9325 31.7987 33.3673 31.8016V31.8055ZM40.3659 26.4472C39.745 26.7987 39.1708 27.0447 36.851 27.6188C36.5686 27.0671 36.1589 26.5905 35.6559 26.2285C35.7067 26.1738 35.7496 26.1152 35.8004 26.0566L40.9361 24.885C41.0281 24.8833 41.1176 24.9141 41.1891 24.972C41.2605 25.0298 41.3092 25.1111 41.3267 25.2013C41.4048 25.4278 41.5063 25.795 40.3659 26.4472ZM45.1111 22.0379C43.5997 22.6042 40.8151 23.3423 40.6823 23.3696L36.9017 24.2249C37.1618 23.5279 37.2941 22.7897 37.2923 22.0457C37.2923 21.9637 37.2923 21.8855 37.2923 21.8035L46.8218 20.0578C46.9653 20.242 47.035 20.4732 47.017 20.7061C46.9936 20.835 46.603 21.4755 45.1111 22.0379ZM48.2668 17.8004C47.9213 18.1639 47.4602 18.3959 46.9623 18.4565H46.9077L37.0306 20.2648C37.0033 20.1671 36.9681 20.0695 36.9369 19.9718C37.6672 19.1439 37.9289 18.2417 37.6672 17.4684L46.1149 16.5506H46.1773C46.6421 16.4608 47.7395 16.3866 48.2316 16.7186C48.28 16.7488 48.3212 16.7894 48.3522 16.8373C48.3833 16.8852 48.4034 16.9393 48.4113 16.9958C48.4468 17.1324 48.4522 17.2751 48.4273 17.414C48.4023 17.5528 48.3476 17.6847 48.2668 17.8004Z" fill="#3F3F3F"/>
</svg>
