<svg width="50" height="31" viewBox="0 0 50 31" fill="none" xmlns="http://www.w3.org/2000/svg">
<path d="M49.0993 23.4163C49.0623 23.2527 48.9628 23.11 48.8222 23.0187C48.6815 22.9273 48.5107 22.8944 48.3462 22.9271C22.6868 27.2787 2.35123 22.5409 2.15167 22.4958C1.99963 22.4544 1.83767 22.4701 1.69648 22.5401C1.5553 22.6101 1.44469 22.7295 1.38563 22.8756L0.05953 25.9784C0.020313 26.0631 0 26.1554 0 26.2488C0 26.3421 0.020313 26.4344 0.05953 26.5191C0.101223 26.6026 0.159133 26.6769 0.229873 26.7377C0.300613 26.7984 0.382764 26.8445 0.471521 26.8732C9.41945 29.5769 18.6764 30.4073 26.6973 30.4073C34.3416 30.4246 41.9686 29.6828 49.4663 28.1929C49.5508 28.1782 49.6316 28.1467 49.7039 28.1004C49.7762 28.054 49.8384 27.9937 49.887 27.9229C49.9356 27.8521 49.9695 27.7723 49.9868 27.6882C50.0041 27.6042 50.0044 27.5175 49.9877 27.4332L49.0993 23.4163ZM1.57231 25.7917L2.38985 23.8605C5.79522 24.5815 24.6438 28.1285 47.9406 24.2982L48.5457 27.0084C44.5095 27.8452 22.3199 31.8171 1.57231 25.7917Z" fill="#3F3F3F"/>
<path d="M49.0928 13.2069L47.2066 6.40257C46.8671 5.14503 46.1505 4.02172 45.1531 3.18389C42.8164 1.25268 38.1815 -0.813708 29.343 0.325704C24.9141 0.898629 20.1762 2.86202 15.6056 6.00345C15.0459 5.81658 14.4544 5.74411 13.8662 5.79035C13.2779 5.83658 12.7049 6.00058 12.1813 6.2726C11.6577 6.54462 11.1941 6.91912 10.818 7.37383C10.442 7.82854 10.1612 8.3542 9.99226 8.91958L9.85708 9.37663C5.93124 11.5834 2.92244 15.1196 1.37264 19.3481C1.3354 19.4354 1.31794 19.5299 1.3215 19.6248C1.32506 19.7196 1.34956 19.8125 1.39324 19.8968C1.43692 19.9811 1.4987 20.0547 1.57416 20.1123C1.64961 20.1699 1.73687 20.2101 1.82969 20.23C1.96488 20.23 11.3441 22.335 25.7831 22.335C33.2489 22.3359 40.7045 21.7829 48.0885 20.6806C48.1831 20.6706 48.2743 20.6398 48.3555 20.5903C48.4367 20.5409 48.506 20.4741 48.5583 20.3947C48.6106 20.3153 48.6447 20.2253 48.6581 20.1311C48.6715 20.037 48.6638 19.941 48.6357 19.8502L47.4062 15.3441L48.9061 13.8442C48.9922 13.7649 49.0551 13.6637 49.088 13.5514C49.1208 13.4391 49.1225 13.32 49.0928 13.2069ZM46.2475 14.6875C46.1653 14.7706 46.1061 14.8736 46.0757 14.9864C46.0452 15.0992 46.0445 15.218 46.0737 15.3312L47.2066 19.4768C24.3604 22.7856 6.71565 19.8245 2.90473 19.0649C4.45075 15.3986 7.19136 12.3631 10.6811 10.4517C10.7661 10.4113 10.842 10.3539 10.904 10.283C10.966 10.2122 11.0128 10.1293 11.0416 10.0397L11.2604 9.30582C11.3781 8.91083 11.5741 8.54357 11.8367 8.22592C12.0993 7.90828 12.4232 7.64675 12.789 7.45693C13.1548 7.26711 13.5551 7.15287 13.966 7.12103C14.377 7.0892 14.7901 7.14041 15.1808 7.27161L15.5026 7.38105C15.6013 7.41516 15.7067 7.42478 15.8099 7.40908C15.9131 7.39338 16.0109 7.35283 16.0949 7.29093C20.601 4.16237 25.2102 2.21185 29.5168 1.65824C38.3231 0.518825 42.5589 2.7719 44.3227 4.23318C45.1111 4.89195 45.6775 5.77752 45.9449 6.7695L47.7281 13.2069L46.2475 14.6875Z" fill="#3F3F3F"/>
<path d="M36.8491 4.07887C33.3022 3.76988 24.6182 3.71194 20.7557 9.79525C20.6007 10.0415 20.5142 10.3246 20.5052 10.6155C20.4961 10.9063 20.5648 11.1942 20.7042 11.4496C20.8403 11.7028 21.0429 11.9139 21.2903 12.0603C21.5376 12.2067 21.8202 12.2826 22.1076 12.2801H29.8324C29.9198 12.2814 30.0064 12.265 30.0872 12.2318C30.168 12.1986 30.2412 12.1493 30.3023 12.0869L30.9461 11.4432C31.3661 11.023 31.8675 10.6931 32.4197 10.4738C32.9718 10.2545 33.5629 10.1504 34.1568 10.1678C34.7506 10.1853 35.3346 10.324 35.8729 10.5755C36.4112 10.8269 36.8923 11.1857 37.2869 11.6299C37.3486 11.7002 37.425 11.7562 37.5106 11.794C37.5962 11.8318 37.689 11.8505 37.7826 11.8488H39.997C40.0959 11.8503 40.1937 11.829 40.2831 11.7866C40.3724 11.7442 40.4507 11.6817 40.512 11.6041C40.5755 11.5284 40.6207 11.4391 40.6442 11.3431C40.6676 11.2471 40.6687 11.147 40.6472 11.0505L39.7073 6.67313C39.5754 5.98984 39.2256 5.36772 38.7103 4.90001C38.195 4.4323 37.542 4.14419 36.8491 4.07887ZM38.1366 10.5162C37.6074 9.98584 36.9788 9.56504 36.2868 9.27792C35.5947 8.99081 34.8528 8.84302 34.1036 8.84302C33.3544 8.84302 32.6125 8.99081 31.9204 9.27792C31.2284 9.56504 30.5998 9.98584 30.0706 10.5162L29.6071 10.9797H22.1398C22.0907 10.9813 22.0422 10.9688 22 10.9437C21.9578 10.9186 21.9237 10.882 21.9016 10.8381C21.8738 10.7913 21.8592 10.738 21.8592 10.6836C21.8592 10.6292 21.8738 10.5759 21.9016 10.5291C24.689 6.13239 30.4504 5.32128 34.3128 5.32128C35.2527 5.32128 36.0831 5.37278 36.7268 5.42428C37.1419 5.46034 37.5341 5.62964 37.845 5.90692C38.156 6.1842 38.3689 6.55459 38.452 6.96281L39.2181 10.5355L38.1366 10.5162Z" fill="#3F3F3F"/>
</svg>
