<svg width="40" height="34" viewBox="0 0 40 34" fill="none" xmlns="http://www.w3.org/2000/svg">
<path d="M34.4015 21.5022V0.621335C34.4015 0.539247 34.3793 0.462381 34.3477 0.389325C34.3445 0.381932 34.3402 0.375606 34.3367 0.368365C34.3059 0.304227 34.2644 0.247063 34.2128 0.196149C34.2058 0.189327 34.1996 0.182582 34.1923 0.175989C34.1344 0.123741 34.0688 0.079801 33.9921 0.0494659C33.9918 0.0493516 33.9916 0.0491611 33.9913 0.0490467C33.9816 0.0452358 33.9742 0.0384523 33.9643 0.0350606C33.8891 0.00945114 33.8119 0.00053349 33.735 0.00057164C33.7339 0.00057164 33.733 0 33.732 0H11.7689C11.573 0 11.3869 0.0807918 11.2607 0.220729L5.55747 6.53164C5.53527 6.55618 5.5273 6.5861 5.50981 6.61266C5.48606 6.64837 5.46137 6.68179 5.4456 6.72184C5.42888 6.76452 5.42396 6.80763 5.41753 6.85202C5.41318 6.88087 5.39936 6.90656 5.39936 6.93651V15.4645H0.666298C0.298012 15.4645 0 15.744 0 16.0889V32.6905C0 33.0353 0.298012 33.3149 0.666298 33.3149H10.677C11.0453 33.3149 11.3433 33.0353 11.3433 32.6905V31.8558H18.5438C18.6238 31.8558 18.7032 31.8423 18.778 31.8158L23.5104 30.1482C28.0854 28.5357 39.2433 28.182 39.3552 28.1787C39.7144 28.1677 40 27.8915 40 27.5546V27.3083C40 24.2893 37.5409 21.7988 34.4015 21.5022ZM28.6983 21.4723V7.16547L33.0689 2.32559V21.4723H28.6983ZM12.078 1.24877H32.2955L27.7228 6.31213H7.50183L12.078 1.24877ZM15.5292 7.5609H18.7676V11.7691H15.5292V7.5609ZM6.73195 7.5609H14.1966V12.3935C14.1966 12.7383 14.4946 13.0179 14.8629 13.0179H19.4339C19.8022 13.0179 20.1002 12.7383 20.1002 12.3935V7.5609H27.3657V21.4723H24.0749C24.2432 21.1631 24.3472 20.8183 24.3472 20.448V19.7086C24.3472 18.2151 23.0504 16.9998 21.4562 16.9998H11.3433V16.0889C11.3433 15.744 11.0453 15.4645 10.677 15.4645H6.73195V7.5609ZM10.0107 32.0661H1.3326V16.7132H6.04308C6.05101 16.7135 6.05764 16.7175 6.06565 16.7175C6.07367 16.7175 6.08029 16.7135 6.08822 16.7132H10.0107V32.0661ZM23.0419 28.9793L18.4227 30.607H11.3433V18.2486H21.4562C22.3158 18.2486 23.0146 18.9035 23.0146 19.7086V20.448C23.0146 21.0129 22.524 21.4723 21.9215 21.4723H15.47C15.1017 21.4723 14.8037 21.7519 14.8037 22.0967C14.8037 22.4415 15.1017 22.7211 15.47 22.7211H21.9215H33.7723C36.3445 22.7211 38.4598 24.5897 38.6531 26.9543C36.1343 27.0555 27.2122 27.5092 23.0419 28.9793Z" fill="#3F3F3F"/>
</svg>
