<svg width="50" height="42" viewBox="0 0 50 42" fill="none" xmlns="http://www.w3.org/2000/svg">
<path d="M42.5374 20.3594C42.5985 20.2741 42.6435 20.1781 42.6703 20.0738C42.6723 20.066 42.6742 20.0582 42.6757 20.0504C42.6957 19.9641 42.7026 19.8769 42.6972 19.8C42.6928 19.7167 42.6733 19.652 42.6684 19.6402C42.6625 19.6082 42.6474 19.555 42.6356 19.5247C42.6083 19.4566 42.5751 19.4021 42.536 19.3483C42.5247 19.3303 42.512 19.312 42.4989 19.2951C42.4822 19.2726 42.4637 19.2506 42.4466 19.2335L32.4991 9.31901C32.3398 9.15999 32.1429 9.03713 31.9309 8.96385L27.4843 7.42472C26.9708 7.26293 26.4316 7.40271 26.0593 7.75916L21.825 6.59477L21.8632 4.56531C22.8916 4.33036 23.663 3.41231 23.663 2.31369C23.663 1.03789 22.6251 0 21.3493 0C20.0735 0 19.0356 1.03789 19.0356 2.31369C19.0356 2.58996 19.2596 2.81395 19.5358 2.81395C19.8121 2.81395 20.0361 2.58996 20.0361 2.31369C20.0361 1.58969 20.6253 1.00052 21.3493 1.00052C22.0733 1.00052 22.6625 1.58969 22.6625 2.31369C22.6625 3.0377 22.0733 3.62687 21.3493 3.62687C21.073 3.62687 20.849 3.85086 20.849 4.12713C20.849 4.16175 20.862 4.19213 20.8687 4.22477L20.8239 6.60842L16.6393 7.75919C16.2663 7.4025 15.7242 7.26314 15.2016 7.42912L10.7684 8.96385C10.5559 9.03713 10.359 9.15999 10.1993 9.31901L0.251499 19.2343C0.236599 19.2492 0.220722 19.2675 0.206066 19.287C0.192875 19.3027 0.178952 19.3225 0.16625 19.3425C0.132542 19.3882 0.0937033 19.4478 0.0643913 19.5215C0.0499795 19.5577 0.0394761 19.5946 0.0350793 19.6185C0.0245758 19.6554 0.0067444 19.7169 0.00234759 19.7897C-0.00400334 19.8755 0.00259186 19.9617 0.0214004 20.0438C0.0233545 20.055 0.0260414 20.0658 0.0287283 20.0765C0.0558419 20.1791 0.100054 20.2736 0.184815 20.3923C0.221455 20.4434 0.266644 20.4857 0.317207 20.5179L6.06651 25.9531C6.23432 26.1118 6.44683 26.1964 6.68499 26.1861C6.91582 26.1778 7.12907 26.0791 7.28491 25.9086L10.318 22.5885V40.8558C10.318 41.4073 10.7667 41.8563 11.3185 41.8563H31.3803C31.9319 41.8563 32.3808 41.4073 32.3808 40.8558V22.5885L35.4137 25.9086C35.5695 26.0791 35.7825 26.1778 36.0136 26.1861C36.2417 26.1964 36.4645 26.1118 36.6321 25.9531L42.4451 20.4576C42.4798 20.4287 42.5111 20.396 42.5374 20.3594ZM31.3803 40.8558H11.3185V22.1616C11.3185 21.8015 11.1077 21.4874 10.7816 21.3609C10.6866 21.3237 10.5879 21.3061 10.4902 21.3061C10.2667 21.3061 10.0485 21.3999 9.88903 21.5744L6.64615 25.124L1.0588 19.8423L10.9054 10.0279C10.9134 10.0199 10.9254 10.0175 10.9339 10.0101C10.9822 9.96815 11.035 9.93014 11.0955 9.90916L15.5157 8.37883C15.7121 8.31801 15.9212 8.39739 16.026 8.57327C16.0365 8.59061 16.0477 8.60722 16.0602 8.6231L16.2729 8.89771L20.5583 14.4303C20.9404 14.9227 21.7582 14.923 22.1402 14.43L26.4258 8.8978L26.6386 8.6231C26.6508 8.60722 26.6621 8.59061 26.6723 8.57327C26.7779 8.39715 26.986 8.31752 27.1702 8.37443L31.6036 9.90916C31.6654 9.93069 31.7198 9.96919 31.7689 10.0127C31.7761 10.0191 31.7863 10.0211 31.7931 10.0279L41.64 19.842L36.0527 25.1245L32.8098 21.5744C32.5802 21.3237 32.2304 21.2387 31.9172 21.3609C31.5909 21.4874 31.3803 21.8015 31.3803 22.1616V40.8558ZM21.3493 7.50167L25.3825 8.61085L21.3493 13.8174L17.3161 8.61082L21.3493 7.50167ZM49.8347 32.0974C50.0389 32.2815 50.0565 32.5952 49.8733 32.8004C49.4404 33.2845 48.5757 33.8551 47.4887 33.8551C46.7471 33.8551 45.903 33.5898 45.0216 32.8502C44.8333 32.6923 44.6518 32.5714 44.474 32.4673C43.3419 31.8048 42.4372 32.1446 41.9442 32.4673C41.6986 32.6281 41.5532 32.7828 41.535 32.8028C41.3493 33.0075 41.0337 33.0236 40.8286 32.838C40.6239 32.6528 40.6077 32.3362 40.7934 32.1315C41.5281 31.3181 43.494 30.2619 45.6645 32.0842C45.8525 32.2418 46.0335 32.3631 46.2104 32.4673C47.3431 33.1343 48.2361 32.795 48.726 32.4673C48.9451 32.3207 49.0864 32.1779 49.1287 32.1315C49.3144 31.9293 49.6295 31.9122 49.8347 32.0974ZM49.8347 38.9739C50.0389 39.1581 50.0565 39.4718 49.8733 39.6769C49.4404 40.1611 48.5757 40.7317 47.4887 40.7317C46.7471 40.7317 45.903 40.4664 45.0216 39.7268C44.8332 39.5687 44.6515 39.4477 44.4735 39.3435C43.342 38.6814 42.4376 39.0209 41.9446 39.3435C41.6987 39.5045 41.5532 39.6594 41.535 39.6794C41.3493 39.8836 41.0337 39.9007 40.8286 39.7146C40.6239 39.5294 40.6077 39.2128 40.7934 39.0081C41.5281 38.1947 43.494 37.1385 45.6645 38.9608C45.8523 39.1182 46.0331 39.2394 46.2098 39.3435C47.343 40.0111 48.2364 39.6713 48.7262 39.3435C48.9453 39.197 49.0864 39.0543 49.1287 39.0081C49.3144 38.8059 49.6295 38.7888 49.8347 38.9739ZM45.6645 25.2081C45.8524 25.3656 46.0334 25.4869 46.2102 25.5911C47.3429 26.2581 48.2359 25.9188 48.7258 25.5911C48.945 25.4445 49.0863 25.3017 49.1287 25.2554C49.3144 25.0537 49.6295 25.0361 49.8347 25.2212C50.0389 25.4054 50.0565 25.7191 49.8733 25.9242C49.4404 26.4084 48.5757 26.979 47.4887 26.979C46.7471 26.979 45.903 26.7137 45.0216 25.9741C44.8333 25.8161 44.6517 25.6952 44.4738 25.5911C43.3419 24.9288 42.4373 25.2685 41.9443 25.5911C41.6986 25.7519 41.5532 25.9067 41.535 25.9267C41.3493 26.1314 41.0337 26.148 40.8286 25.9619C40.6239 25.7767 40.6077 25.4601 40.7934 25.2554C41.5281 24.442 43.494 23.3853 45.6645 25.2081Z" fill="#3F3F3F"/>
</svg>
