<svg width="400" height="349" viewBox="0 0 400 349" fill="none" xmlns="http://www.w3.org/2000/svg">
<path fill-rule="evenodd" clip-rule="evenodd" d="M24.9626 0H374.938C382.027 0 388.417 2.99551 393.01 7.68847L199.301 164.853L5.59161 9.18622C10.1847 3.59461 17.1742 0 24.9626 0ZM246.131 327.609C217.574 356.066 171.243 356.066 142.686 327.609C114.129 299.051 114.129 252.721 142.686 224.164C171.243 195.607 217.574 195.607 246.131 224.164C274.688 252.721 274.688 299.051 246.131 327.609ZM231.053 254.019L209.186 275.886L231.053 297.753C233.05 299.75 233.15 302.946 231.253 304.843L223.465 312.731C221.568 314.628 218.273 314.528 216.276 312.531L194.408 290.664L172.541 312.531C170.544 314.528 167.349 314.628 165.452 312.731L157.564 304.843C155.666 302.946 155.766 299.75 157.763 297.753L179.631 275.886L157.763 254.019C155.766 252.022 155.666 248.727 157.564 246.83L165.452 239.041C167.349 237.144 170.544 237.244 172.541 239.241L194.408 261.108L216.276 239.241C218.273 237.244 221.568 237.144 223.465 239.041L231.253 246.83C233.15 248.727 233.05 252.022 231.053 254.019ZM3.29506 251.223C1.1982 247.529 0 243.335 0 238.842V24.9626C0 23.6645 0.0998502 22.2666 0.299551 20.9685L147.079 138.992L3.29506 251.223ZM241.338 146.78L199.301 180.929L157.064 146.98L11.982 260.21C15.7763 262.506 20.2696 263.804 24.9626 263.804H110.634C116.425 222.766 151.772 191.213 194.408 191.213C237.144 191.213 272.391 222.766 278.283 263.804H374.938C379.531 263.804 383.824 262.606 387.519 260.509L241.338 146.78ZM399.201 18.7718C399.7 20.7688 400 22.8657 400 24.9626V238.842C400 243.535 398.702 247.828 396.405 251.623L251.323 138.792L399.201 18.7718Z" fill="#EB827D"/>
</svg>
