<svg width="30" height="31" viewBox="0 0 30 31" fill="none" xmlns="http://www.w3.org/2000/svg">
<path d="M3.36648 0C1.55224 0 0 0.958777 0 2.22372V28.7763C0 30.0412 1.55224 31 3.36648 31H26.6335C28.4478 31 30 30.0412 30 28.7763V2.22372C30 0.958777 28.4478 0 26.6335 0H3.36648ZM3.36648 0.704545H9.09091V5.63636H0.909091V2.22372C0.909091 1.41409 1.95744 0.704545 3.36648 0.704545ZM10 0.704545H26.6335C28.0426 0.704545 29.0909 1.41409 29.0909 2.22372V5.63636H10V0.704545ZM12.7273 1.76136C11.7285 1.76136 10.9091 2.39641 10.9091 3.17045C10.9091 3.9445 11.7285 4.57955 12.7273 4.57955C13.726 4.57955 14.5455 3.9445 14.5455 3.17045C14.5455 2.39641 13.726 1.76136 12.7273 1.76136ZM12.7273 2.46591C13.2347 2.46591 13.6364 2.77717 13.6364 3.17045C13.6364 3.56374 13.2347 3.875 12.7273 3.875C12.2198 3.875 11.8182 3.56374 11.8182 3.17045C11.8182 2.77717 12.2198 2.46591 12.7273 2.46591ZM17.1875 2.81818C17.1278 2.82252 17.0698 2.83593 17.0168 2.85764C16.9638 2.87935 16.9168 2.90894 16.8786 2.94472C16.8403 2.98049 16.8115 3.02175 16.7939 3.06615C16.7762 3.11055 16.77 3.15722 16.7756 3.20348C16.7812 3.24974 16.7985 3.2947 16.8265 3.33578C16.8545 3.37686 16.8927 3.41325 16.9388 3.44289C16.985 3.47254 17.0382 3.49484 17.0955 3.50854C17.1528 3.52223 17.213 3.52706 17.2727 3.52273H19.0909C19.1511 3.52339 19.2109 3.51476 19.2668 3.49736C19.3227 3.47995 19.3736 3.45411 19.4165 3.42133C19.4594 3.38855 19.4935 3.34949 19.5167 3.30643C19.54 3.26336 19.5519 3.21714 19.5519 3.17045C19.5519 3.12377 19.54 3.07755 19.5167 3.03448C19.4935 2.99141 19.4594 2.95236 19.4165 2.91958C19.3736 2.8868 19.3227 2.86096 19.2668 2.84355C19.2109 2.82615 19.1511 2.81752 19.0909 2.81818H17.2727C17.2444 2.81611 17.2158 2.81611 17.1875 2.81818ZM20.8239 2.81818C20.7642 2.82252 20.7062 2.83593 20.6532 2.85764C20.6002 2.87935 20.5532 2.90894 20.5149 2.94472C20.4767 2.98049 20.4479 3.02175 20.4302 3.06615C20.4126 3.11055 20.4063 3.15722 20.4119 3.20348C20.4175 3.24974 20.4348 3.2947 20.4628 3.33578C20.4909 3.37686 20.529 3.41325 20.5752 3.44289C20.6214 3.47254 20.6746 3.49484 20.7319 3.50854C20.7892 3.52223 20.8494 3.52706 20.9091 3.52273H22.7273C22.7875 3.52339 22.8473 3.51476 22.9032 3.49736C22.9591 3.47995 23.01 3.45411 23.0529 3.42133C23.0958 3.38855 23.1298 3.34949 23.1531 3.30643C23.1763 3.26336 23.1883 3.21714 23.1883 3.17045C23.1883 3.12377 23.1763 3.07755 23.1531 3.03448C23.1298 2.99141 23.0958 2.95236 23.0529 2.91958C23.01 2.8868 22.9591 2.86096 22.9032 2.84355C22.8473 2.82615 22.7875 2.81752 22.7273 2.81818H20.9091C20.8807 2.81611 20.8522 2.81611 20.8239 2.81818ZM2.64205 3.875C2.58235 3.87934 2.52435 3.89274 2.47134 3.91445C2.41834 3.93616 2.37137 3.96576 2.33311 4.00153C2.29486 4.03731 2.26608 4.07857 2.24841 4.12297C2.23073 4.16737 2.22452 4.21404 2.23011 4.2603C2.23571 4.30656 2.25301 4.35151 2.28102 4.39259C2.30903 4.43367 2.34721 4.47007 2.39338 4.49971C2.43954 4.52936 2.49279 4.55166 2.55008 4.56535C2.60737 4.57905 2.66758 4.58388 2.72727 4.57955H7.27273C7.33296 4.58021 7.39276 4.57158 7.44866 4.55417C7.50455 4.53677 7.55542 4.51092 7.59832 4.47815C7.64121 4.44537 7.67528 4.40631 7.69853 4.36325C7.72177 4.32018 7.73375 4.27396 7.73375 4.22727C7.73375 4.18059 7.72177 4.13437 7.69853 4.0913C7.67528 4.04823 7.64121 4.00918 7.59832 3.9764C7.55542 3.94362 7.50455 3.91778 7.44866 3.90037C7.39276 3.88296 7.33296 3.87434 7.27273 3.875H2.72727C2.69893 3.87293 2.67039 3.87293 2.64205 3.875ZM0.909091 6.34091H29.0909V28.7763C29.0909 29.5859 28.0426 30.2955 26.6335 30.2955H3.36648C1.95744 30.2955 0.909091 29.5859 0.909091 28.7763V6.34091ZM15 8.80682C9.73357 8.80682 5.45455 12.123 5.45455 16.2045C5.45455 20.286 9.73357 23.6023 15 23.6023C20.2664 23.6023 24.5455 20.286 24.5455 16.2045C24.5455 12.123 20.2664 8.80682 15 8.80682ZM15 9.51136C19.7751 9.51136 23.6364 12.5038 23.6364 16.2045C23.6364 19.9052 19.7751 22.8977 15 22.8977C10.2249 22.8977 6.36364 19.9052 6.36364 16.2045C6.36364 12.5038 10.2249 9.51136 15 9.51136ZM15 10.2159C10.7377 10.2159 7.27273 12.9013 7.27273 16.2045C7.27273 19.5078 10.7377 22.1932 15 22.1932C19.2623 22.1932 22.7273 19.5078 22.7273 16.2045C22.7273 12.9013 19.2623 10.2159 15 10.2159ZM15 10.9205C18.771 10.9205 21.8182 13.2821 21.8182 16.2045C21.8182 19.127 18.771 21.4886 15 21.4886C11.229 21.4886 8.18182 19.127 8.18182 16.2045C8.18182 13.2821 11.229 10.9205 15 10.9205Z" fill="#3F3F3F"/>
</svg>
