<svg width="50" height="21" viewBox="0 0 50 21" fill="none" xmlns="http://www.w3.org/2000/svg">
<path d="M32.9516 5.64516L32.646 3.4621C32.3637 1.48871 30.6476 0 28.654 0H20.1379C17.3371 0 14.7048 1.09113 12.725 3.07097L10.3871 5.40887C10.2355 5.55968 10.0282 5.64516 9.81613 5.64516H8.62742C6.00323 5.64516 3.42661 6.35887 1.17339 7.70968C0.45 8.14516 0 8.94032 0 9.78468V16.9355H4.31452C4.98065 18.8121 6.76855 20.1613 8.87097 20.1613C10.9734 20.1613 12.7613 18.8121 13.4274 16.9355H34.1532C34.8194 18.8121 36.6073 20.1613 38.7097 20.1613C40.8121 20.1613 42.6 18.8121 43.2661 16.9355H45.9677C48.1911 16.9355 50 15.1266 50 12.9032V5.64516H32.9516ZM8.87097 18.5484C7.09194 18.5484 5.64516 17.1016 5.64516 15.3226C5.64516 13.5435 7.09194 12.0968 8.87097 12.0968C10.65 12.0968 12.0968 13.5435 12.0968 15.3226C12.0968 17.1016 10.65 18.5484 8.87097 18.5484ZM38.7097 18.5484C36.9306 18.5484 35.4839 17.1016 35.4839 15.3226C35.4839 13.5435 36.9306 12.0968 38.7097 12.0968C40.4887 12.0968 41.9355 13.5435 41.9355 15.3226C41.9355 17.1016 40.4887 18.5484 38.7097 18.5484ZM45.9677 15.3226H43.5484C43.5484 12.654 41.3782 10.4839 38.7097 10.4839C36.0411 10.4839 33.871 12.654 33.871 15.3226H32.4355L32.446 15.2718C32.5419 14.7927 32.6266 14.3137 32.6992 13.8323L31.1048 13.5879C31.0347 14.0452 30.9548 14.5 30.8637 14.954L30.7903 15.3226H23.3871V10.4839H21.7742V15.3226H13.7097C13.7097 12.654 11.5395 10.4839 8.87097 10.4839C6.20242 10.4839 4.03226 12.654 4.03226 15.3226H1.6129V9.78468C1.6129 9.50242 1.76371 9.2371 2.00403 9.09274C4.00565 7.89194 6.29597 7.25806 8.62742 7.25806H9.81613C10.4621 7.25806 11.0702 7.00645 11.5266 6.54919L13.8645 4.21129C15.5411 2.53629 17.7677 1.6129 20.1379 1.6129H28.6548C29.8508 1.6129 30.8806 2.50565 31.0492 3.69032L31.4524 6.50887V9.02097C31.4524 9.49677 31.4403 9.97177 31.4185 10.446L33.0298 10.5218C33.0524 10.0226 33.0645 9.52258 33.0645 9.02177V7.25806H48.3871V11.2903H44.3548V12.9032H48.3871C48.3871 14.2371 47.3016 15.3226 45.9677 15.3226Z" fill="#3F3F3F"/>
<path d="M14.5161 7.25797V8.06442H29.8387V3.22571H18.5484C16.325 3.22571 14.5161 5.03458 14.5161 7.25797ZM28.2258 6.45151H16.2669C16.6 5.5128 17.4968 4.83861 18.5484 4.83861H28.2258V6.45151Z" fill="#3F3F3F"/>
<path d="M27.4193 9.67737H25.8064V11.2903H27.4193V9.67737Z" fill="#3F3F3F"/>
<path d="M19.3547 9.67737H17.7418V11.2903H19.3547V9.67737Z" fill="#3F3F3F"/>
<path d="M9.67748 14.5162H8.06458V16.1291H9.67748V14.5162Z" fill="#3F3F3F"/>
<path d="M39.5161 14.5162H37.9032V16.1291H39.5161V14.5162Z" fill="#3F3F3F"/>
</svg>
