<svg width="400" height="332" viewBox="0 0 400 332" fill="none" xmlns="http://www.w3.org/2000/svg">
<path d="M289.654 192.615L241.989 224.424L361.031 303.753V183.296C345.761 191.102 328.978 195.054 312.243 195.054C304.681 195.103 297.119 194.225 289.654 192.615Z" fill="#006CB5"/>
<path d="M0 145.095V303.705L118.994 224.424L0 145.095Z" fill="#006CB5"/>
<path d="M224.424 236.085L196.762 254.527C191.785 257.844 186.175 259.454 180.515 259.454C174.856 259.454 169.196 257.844 164.269 254.527L136.606 236.085L7.80602 322L1.12207 326.391C2.73207 329.514 6.00087 331.709 9.75754 331.709H351.273C355.03 331.709 358.25 329.514 359.908 326.391L353.176 322L224.424 236.085Z" fill="#006CB5"/>
<path d="M175.1 238.378C178.369 240.525 182.613 240.525 185.931 238.378L266.382 184.711C255.502 179.588 245.306 172.661 236.329 163.684C225.498 152.853 217.545 140.265 212.325 126.849C211.057 123.629 209.983 120.36 209.056 117.091H9.75754C6.00087 117.091 2.73207 119.238 1.12207 122.36L7.80602 126.849L175.1 238.378Z" fill="#006CB5"/>
<path d="M374.349 25.6625C357.225 8.53789 334.733 0 312.242 0C289.751 0 267.26 8.53789 250.135 25.6625C215.886 59.9116 215.886 115.627 250.135 149.877C284.384 184.077 340.1 184.077 374.349 149.877C408.549 115.627 408.549 59.9604 374.349 25.6625ZM362.25 65.327L303.607 124.019C301.753 125.873 299.313 126.849 296.728 126.849C294.093 126.849 291.654 125.824 289.8 123.97L262.186 96.4049C258.38 92.5995 258.38 86.4034 262.186 82.598C266.04 78.7925 272.187 78.7925 275.993 82.598L279.261 85.818L296.728 103.284L333.806 66.2052L348.443 51.52C352.248 47.7146 358.444 47.7146 362.25 51.52C366.055 55.3743 366.055 61.5704 362.25 65.327Z" fill="#006CB5"/>
</svg>
